<svg width="76" height="28" viewBox="0 0 76 28" fill="none" xmlns="http://www.w3.org/2000/svg">
<path d="M0.531283 19.4482C0.898518 17.4507 0.77303 16.3087 1.27201 15.8132C3.12212 13.961 4.927 11.94 7.18797 10.6107C13.1289 6.84839 19.7645 5.34169 26.6939 4.9319C38.5032 4.20935 49.7955 6.60964 60.9217 10.411C62.113 10.8152 63.2817 11.1351 64.5572 11.5168C64.6414 11.4943 64.7871 11.3648 64.9945 11.1283C63.9919 9.40742 62.9667 7.60215 62.0483 5.85867C61.6086 4.89128 61.2921 3.70999 61.3576 2.60723C61.3678 1.97147 62.0679 0.879539 62.6573 0.721607C63.4151 0.518551 64.4996 0.860999 65.3088 1.18676C65.8429 1.49584 66.1306 2.23268 66.4798 2.86257C69.0994 7.58673 71.8873 12.2658 74.4453 17.0969C76.6313 21.2137 75.5842 23.0316 71.2221 23.9292C66.6916 24.8718 62.2064 25.9832 57.7827 26.9877C56.4128 27.2643 54.9136 27.3947 53.3527 27.6321C54.003 23.6596 54.003 23.6596 67.3045 18.7389C59.9861 15.0025 52.6372 13.1734 45.1877 11.6425C37.7383 10.1117 30.2459 9.76795 22.6038 10.5496C14.7092 11.3988 7.93638 14.751 0.531283 19.4482Z" fill="url(#paint0_linear_40000651_3008)"/>
<defs>
<linearGradient id="paint0_linear_40000651_3008" x1="57.3022" y1="-4.40084" x2="56.2268" y2="39.357" gradientUnits="userSpaceOnUse">
<stop stop-color="#E1C16E"/>
<stop offset="1" stop-color="#BC9B62"/>
</linearGradient>
</defs>
</svg>
