<svg width="86" height="27" viewBox="0 0 86 27" fill="none" xmlns="http://www.w3.org/2000/svg">
<path d="M0 4.00022V22.9893C0 22.9893 4.75632 17.6498 10.9068 10.3967L0 4.00022Z" fill="white"/>
<path d="M7.83105 18.6571C7.83105 18.7326 13.7655 14.8346 15.9998 13.4998L11.5073 10.7996L7.83105 18.6571Z" fill="white"/>
<path d="M25.1378 20V6.90909H27.9055V12.3104H33.5241V6.90909H36.2855V20H33.5241V14.5923H27.9055V20H25.1378ZM38.0004 6.90909H41.1006L44.0857 12.5469H44.2135L47.1986 6.90909H50.2987L45.5239 15.3722V20H42.7753V15.3722L38.0004 6.90909ZM52.0104 20V6.90909H57.1752C58.1681 6.90909 59.014 7.09872 59.7129 7.47798C60.4117 7.85298 60.9444 8.375 61.3109 9.04403C61.6816 9.70881 61.867 10.4759 61.867 11.3452C61.867 12.2145 61.6795 12.9815 61.3045 13.6463C60.9295 14.3111 60.3862 14.8288 59.6745 15.1996C58.9671 15.5703 58.1106 15.7557 57.1049 15.7557H53.813V13.5376H56.6575C57.1901 13.5376 57.629 13.446 57.9742 13.2628C58.3237 13.0753 58.5836 12.8175 58.754 12.4893C58.9288 12.157 59.0161 11.7756 59.0161 11.3452C59.0161 10.9105 58.9288 10.5312 58.754 10.2074C58.5836 9.87926 58.3237 9.62571 57.9742 9.44673C57.6248 9.26349 57.1816 9.17188 56.6447 9.17188H54.7782V20H52.0104ZM63.8647 20V6.90909H72.6858V9.19105H66.6325V12.3104H72.2319V14.5923H66.6325V17.718H72.7113V20H63.8647ZM75.0862 20V6.90909H80.251C81.2396 6.90909 82.0834 7.08594 82.7822 7.43963C83.4854 7.78906 84.0202 8.28551 84.3866 8.92898C84.7574 9.56818 84.9428 10.3203 84.9428 11.1854C84.9428 12.0547 84.7553 12.8026 84.3803 13.429C84.0053 14.0511 83.4619 14.5284 82.7503 14.8608C82.0429 15.1932 81.1864 15.3594 80.1807 15.3594H76.7226V13.1349H79.7332C80.2616 13.1349 80.7006 13.0625 81.05 12.9176C81.3994 12.7727 81.6594 12.5554 81.8298 12.2656C82.0045 11.9759 82.0919 11.6158 82.0919 11.1854C82.0919 10.7507 82.0045 10.3842 81.8298 10.0859C81.6594 9.78764 81.3973 9.56179 81.0436 9.40838C80.6942 9.25071 80.2531 9.17188 79.7205 9.17188H77.854V20H75.0862ZM82.1558 14.0426L85.4094 20H82.354L79.1707 14.0426H82.1558Z" fill="white"/>
</svg>
