<svg width="192" height="35" viewBox="0 0 192 35" fill="none" xmlns="http://www.w3.org/2000/svg">
<g clip-path="url(#clip0_40000651_2902)">
<path d="M28.9404 9.33181L30.6736 7.9987L31.0157 8.51839L27.8685 10.6423L22.3496 14.3705L28.4615 8.76693C28.6211 8.9477 28.7807 9.15105 28.9404 9.35441V9.33181ZM29.7614 10.4842L22.8741 15.1388L28.8948 12.2692L32.3156 10.6423L32.0419 10.0775L30.1491 11.1394C30.035 10.9135 29.8982 10.7101 29.7614 10.4842ZM31.5174 14.4383L23.5583 16.8786L30.1719 15.8844L33.9348 15.3195L33.8436 14.7095L31.7227 15.1614C31.677 14.9128 31.6086 14.6643 31.5402 14.4383H31.5174ZM30.7876 12.3822L23.2846 15.9748L29.6702 14.0316L33.2962 12.9245L33.1138 12.337L31.0841 13.1052C30.9929 12.8793 30.9017 12.6307 30.7876 12.4048V12.3822ZM17.9025 5.40025L18.199 1.64944L17.5832 1.60425V3.75079C17.5148 3.75079 17.4692 3.75079 17.4236 3.75079C17.2183 3.75079 17.0131 3.75079 16.8078 3.75079L17.4236 11.9755L17.9253 5.37765L17.9025 5.40025ZM7.00142 8.06648L13.1133 13.6927L8.9399 8.51839L6.56812 5.58101L6.0892 5.96513L7.54876 7.56939C7.36631 7.72755 7.18387 7.90831 7.00142 8.08908V8.06648ZM25.1318 5.94253L20.9584 13.0826L25.1318 7.90832L27.5036 4.97094L27.0247 4.58682L25.7704 6.34924C25.5651 6.21367 25.3599 6.0781 25.1318 5.94253ZM26.8879 7.23046L21.6882 13.6927L26.5914 9.19624L29.3737 6.64298L28.9404 6.19108L27.4352 7.75015C27.2528 7.56939 27.0703 7.41122 26.8651 7.25305L26.8879 7.23046ZM2.78239 17.7824H11.1064L4.49281 16.7882L0.729894 16.2234L0.638672 16.8334L2.8052 17.0142C2.8052 17.2627 2.75959 17.5113 2.75959 17.7598L2.78239 17.7824ZM3.01045 15.6359L11.2433 16.856L4.8577 14.9128L1.23162 13.8057L1.04917 14.3931L3.17009 14.9128C3.10167 15.1614 3.05606 15.4099 3.01045 15.6585V15.6359ZM19.2708 12.2918L21.711 6.12329L23.1021 2.62103L22.532 2.39508L21.8706 4.45125C21.6198 4.38346 21.3917 4.29308 21.1409 4.24789L19.2936 12.2918H19.2708ZM16.4657 12.0658L15.964 5.46803L15.6903 1.71722L15.0746 1.76241L15.3711 3.90896C15.1202 3.95415 14.8693 3.97675 14.6185 4.02194L16.4657 12.0658ZM15.5307 12.2918L14.0483 5.82955L13.2045 2.14653L12.5888 2.2821L13.2045 4.36086C12.9537 4.42865 12.7256 4.51903 12.4748 4.58682L15.5307 12.2692V12.2918ZM20.1374 12.6307L23.467 6.89153L25.3599 3.63782L24.8126 3.32148L23.8319 5.24208C23.6039 5.1291 23.3758 5.01613 23.1478 4.92575L20.0918 12.6081L20.1374 12.6307ZM8.64342 6.64298L13.8431 13.1052L10.5135 7.36603L8.62062 4.11232L8.07329 4.42865L9.28198 6.23627C9.07673 6.37184 8.84867 6.53001 8.66623 6.66558L8.64342 6.64298ZM10.4907 5.46803L14.6641 12.6307L12.2239 6.46222L10.8328 2.95996L10.2626 3.18591L11.1748 5.1291C10.9468 5.24208 10.7187 5.35506 10.4907 5.46803ZM4.4244 11.5461L11.9274 15.1388L6.40848 11.4106L3.26131 9.28662L2.91923 9.78372L4.78928 10.8909C4.65245 11.1168 4.53842 11.3202 4.4244 11.5461ZM5.58748 9.71593L12.4748 14.3705L7.57156 9.8741L4.78928 7.29824L4.35598 7.75015L6.04359 9.12846C5.88395 9.33181 5.72431 9.51258 5.56467 9.71593H5.58748ZM3.55778 13.5345L11.5169 15.9748L5.49626 13.1052L2.07542 11.4558L1.80176 12.0206L3.80865 12.8341C3.71742 13.06 3.6262 13.3086 3.53498 13.5345H3.55778ZM31.9963 17.3079C31.9963 17.0594 31.9507 16.8108 31.9279 16.5623L23.6951 17.7824H34.1856V17.1724L32.0191 17.3079H31.9963ZM19.841 5.6262L20.6848 1.96577L20.069 1.8302L19.7041 3.95415C19.4533 3.90896 19.2024 3.88637 18.9515 3.84118L18.3358 12.0658L19.8181 5.6036L19.841 5.6262ZM32.0191 18.7314C32.0191 18.98 31.9963 19.2511 31.9735 19.4997L33.1366 19.6126C33.1366 19.3189 33.1594 19.0478 33.1594 18.754H32.0191V18.7314ZM23.7863 18.7314H11.1064L2.87362 19.9742C2.85081 19.7256 2.82801 19.4771 2.8052 19.2285L1.61931 19.2963C1.61931 19.9064 1.68773 20.4939 1.77895 21.0813L4.62965 20.652L11.2433 19.6804L3.28412 22.1207C3.2157 21.8722 3.17009 21.6236 3.10167 21.3751L1.87017 21.6236C1.9842 22.2111 2.12103 22.7986 2.30348 23.3634L5.13137 22.5048L11.5169 20.5616L4.0139 24.1543C3.89987 23.9283 3.80864 23.6798 3.71742 23.4538L2.48592 23.9057C2.69117 24.4706 2.91923 25.0355 3.19289 25.5778L5.90676 24.2899L11.9274 21.4203L5.04015 26.0749C4.90331 25.8715 4.76648 25.6456 4.65245 25.4196L3.44376 26.0975C3.74023 26.6398 4.0367 27.1369 4.40159 27.6339L6.95581 25.9167L12.4748 22.1885L6.36287 27.7921C6.20323 27.6113 6.04359 27.408 5.88395 27.2046L4.74367 28.0858C5.10856 28.5603 5.49626 29.0348 5.92956 29.4642L8.23292 27.3628L13.1361 22.8664L7.93645 29.3286C7.7312 29.1704 7.54876 28.9897 7.36631 28.8089L6.34006 29.8709C6.77337 30.3002 7.22948 30.6843 7.7084 31.0684L9.69248 28.6055L13.8659 23.4312L9.69248 30.5713C9.46442 30.4358 9.25917 30.3002 9.05392 30.142L8.16451 31.3847C8.66623 31.7463 9.16795 32.0626 9.71529 32.3563L11.3345 29.5997L14.6641 23.8605L11.6081 31.5429C11.3801 31.4525 11.152 31.3396 10.9012 31.2266L10.1942 32.6275C10.7415 32.8986 11.2889 33.1472 11.8818 33.3731L13.0677 30.368L15.5079 24.1995L13.6606 32.2434C13.4098 32.1756 13.1589 32.1078 12.9309 32.0174L12.4291 33.5313C12.9993 33.7121 13.5922 33.8702 14.208 34.0058L14.9378 30.8425L16.4201 24.3802L15.8044 32.6049C15.5535 32.5823 15.3026 32.5371 15.0518 32.4919L14.7781 34.0736C15.3711 34.164 15.9868 34.2318 16.6026 34.2543L16.8534 31.0232L17.3551 24.4254L17.9709 32.6501C17.7656 32.6501 17.5604 32.6501 17.3551 32.6501C17.1499 32.6501 17.2639 32.6501 17.2183 32.6501V34.2543C17.2411 34.2543 17.3095 34.2543 17.3551 34.2543C17.9253 34.2543 18.4954 34.2317 19.0428 34.164L18.7919 30.9328L18.2902 24.335L20.1374 32.3789C19.8866 32.4241 19.6357 32.4693 19.3848 32.4919L19.6129 34.0736C20.2286 33.9832 20.8216 33.8702 21.4145 33.7121L20.6848 30.5713L19.2024 24.1091L22.2583 31.7915C22.0075 31.8818 21.7794 31.9496 21.5286 32.0174L21.9847 33.5313C22.5776 33.3505 23.1478 33.1472 23.7179 32.8986L22.532 29.9161L20.0918 23.7476L24.2652 30.9103C24.0372 31.0232 23.8091 31.1362 23.5811 31.2492L24.2424 32.6501C24.7898 32.3789 25.3371 32.0852 25.8388 31.7463L24.2424 29.0123L20.9128 23.2731L26.1125 29.7353C25.9072 29.8935 25.702 30.029 25.4739 30.1646L26.3177 31.4299C26.8195 31.091 27.2984 30.7069 27.7545 30.3002L25.7932 27.8599L21.6198 22.6856L27.7317 28.3118C27.5492 28.4926 27.3668 28.6733 27.1615 28.8315L28.165 29.9161C28.5983 29.5093 29.0316 29.0574 29.4193 28.6055L27.1615 26.5268L22.2583 22.0077L29.1456 26.6623C28.986 26.8657 28.8263 27.0691 28.6667 27.2724L29.7614 28.1762C30.1263 27.7017 30.4912 27.2046 30.8104 26.6849L28.3018 24.9903L22.7829 21.2621L30.2859 24.8547C30.1719 25.0807 30.035 25.3066 29.8982 25.5326L31.0841 26.233C31.3806 25.7134 31.6542 25.1711 31.8823 24.6062L29.214 23.3183L23.1934 20.4261L31.1525 22.8664C31.0613 23.1149 30.9701 23.3409 30.8788 23.5894L32.0875 24.0865C32.2928 23.5216 32.4752 22.9567 32.6121 22.3693L29.8298 21.5106L23.4442 19.5449L31.677 20.765C31.6314 21.0135 31.5858 21.2621 31.5174 21.5106L32.7261 21.8044C32.8401 21.2169 32.9313 20.6294 32.977 20.0419L23.5811 18.6185H23.6723L23.7863 18.7314Z" fill="url(#paint0_linear_40000651_2902)"/>
<path d="M47.2071 29.6223C45.8387 29.6223 44.6529 29.4641 43.6494 29.1252C42.646 28.8088 41.8934 28.3343 41.346 27.7243C40.8215 27.1142 40.5479 26.3686 40.5479 25.5325C40.5479 24.6965 40.7075 24.2446 41.0268 23.8831C41.346 23.499 41.7109 23.2504 42.1214 23.0922C42.5319 22.9341 42.9196 22.8663 43.2389 22.8663C43.2389 24.3124 43.3757 25.5099 43.6266 26.4589C43.9003 27.4079 44.3336 28.1084 44.9265 28.5603C45.5423 29.0348 46.3405 29.2607 47.3667 29.2607C48.393 29.2607 49.6929 28.9218 50.4683 28.2666C51.2437 27.6113 51.6314 26.5945 51.6314 25.284C51.6314 23.9735 51.4717 23.7249 51.1524 23.2052C50.8332 22.7081 50.3314 22.2562 49.6245 21.8721C48.9175 21.488 47.9597 21.0361 46.7282 20.539C45.3598 19.9515 44.2424 19.3866 43.3757 18.8217C42.5091 18.2569 41.8706 17.6016 41.4601 16.8786C41.0496 16.1555 40.8443 15.2517 40.8443 14.2123C40.8443 12.4273 41.4829 11.0716 42.76 10.1226C44.0371 9.17358 45.8159 8.72168 48.0509 8.72168C50.2858 8.72168 50.4683 8.87985 51.3805 9.21877C52.2699 9.53511 52.9541 9.96442 53.4102 10.5067C53.8663 11.0264 54.0944 11.6139 54.0944 12.2691C54.0944 12.9244 53.8435 13.4893 53.3418 13.9186C52.84 14.3479 52.0647 14.5512 51.0612 14.5512C51.0612 12.5629 50.7875 11.162 50.2402 10.3259C49.6929 9.48992 48.8719 9.0832 47.7544 9.0832C46.6369 9.0832 46.3405 9.21878 45.7703 9.46732C45.223 9.73847 44.7669 10.1226 44.4704 10.6423C44.1511 11.162 43.9915 11.8172 43.9915 12.6532C43.9915 13.4893 44.1739 14.1897 44.5388 14.7094C44.9037 15.2291 45.4739 15.6584 46.2264 16.0425C46.979 16.4267 47.9597 16.856 49.1455 17.3305C50.5139 17.8502 51.6085 18.415 52.4524 18.9799C53.2962 19.5674 53.8891 20.2001 54.2768 20.9457C54.6645 21.6687 54.8469 22.55 54.8469 23.5893C54.8469 25.5551 54.1628 27.0464 52.8172 28.0858C51.4717 29.1252 49.5789 29.6449 47.1843 29.6449L47.2071 29.6223Z" fill="white"/>
<path d="M66.865 29.6222C64.06 29.6222 61.8478 28.7636 60.2058 27.0237C58.5866 25.2839 57.7656 22.6628 57.7656 19.1154C57.7656 15.5679 58.541 12.9469 60.0918 11.2297C61.6426 9.51243 63.9231 8.65381 66.9791 8.65381C70.035 8.65381 71.9963 9.51243 73.6383 11.2297C75.2575 12.9469 76.0785 15.5679 76.0785 19.1154C76.0785 22.6628 75.3031 25.2839 73.7523 27.0237C72.2015 28.7636 69.8982 29.6222 66.8878 29.6222H66.865ZM66.9335 29.2381C68.0965 29.2381 69.0316 28.8991 69.7385 28.2439C70.4455 27.5886 70.97 26.504 71.2665 25.0353C71.5858 23.5441 71.7454 21.5783 71.7454 19.1154C71.7454 16.6525 71.5858 14.7319 71.2665 13.2406C70.9472 11.7494 70.4455 10.6874 69.7385 10.0321C69.0316 9.37686 68.0737 9.03793 66.8878 9.03793C65.702 9.03793 64.7897 9.37686 64.0828 10.0321C63.3758 10.6874 62.8513 11.7719 62.5548 13.2406C62.2355 14.7319 62.0759 16.6751 62.0759 19.1154C62.0759 21.5557 62.2355 23.5441 62.5548 25.0353C62.8741 26.5266 63.3986 27.5886 64.1056 28.2439C64.8353 28.8991 65.7704 29.2381 66.9335 29.2381Z" fill="white"/>
<path d="M87.915 29.6222C85.6801 29.6222 84.0381 29.0347 82.9434 27.8824C81.8487 26.7074 81.3014 24.8546 81.3014 22.3013V12.6758C81.3014 11.8398 81.2102 11.2071 81.0277 10.7326C80.8453 10.2581 80.526 9.94176 80.0927 9.761C79.6594 9.58024 79.0893 9.46726 78.3367 9.46726H78.2227V9.08314H85.4748V22.7758C85.4748 24.2219 85.5889 25.4195 85.7941 26.3233C85.9994 27.2271 86.3642 27.8824 86.866 28.3117C87.3677 28.741 88.0519 28.9443 88.9185 28.9443C89.7851 28.9443 90.8569 28.6506 91.5411 28.0405C92.2253 27.4305 92.727 26.5718 93.0691 25.4647C93.3884 24.3575 93.5708 23.0018 93.5708 21.4653V12.5854C93.5708 11.7494 93.4568 11.1167 93.2515 10.6874C93.0463 10.2581 92.7042 9.94176 92.2709 9.7384C91.8376 9.55764 91.2674 9.44467 90.5833 9.44467H90.4692V9.06055H97.767V25.8036C97.767 26.617 97.8811 27.2271 98.1091 27.6564C98.3372 28.0857 98.6792 28.4021 99.1125 28.5828C99.5459 28.7636 100.116 28.854 100.755 28.854H100.869V29.2381H93.776V24.5383H93.7076C93.5024 25.6906 93.1831 26.617 92.7498 27.2949C92.3165 27.9728 91.8376 28.4698 91.2902 28.8088C90.7429 29.1251 90.1728 29.3511 89.6026 29.464C89.0097 29.577 88.4624 29.6448 87.9378 29.6448L87.915 29.6222Z" fill="white"/>
<path d="M101.552 29.2381V28.854H102.054C102.716 28.854 103.263 28.7636 103.696 28.5829C104.129 28.4021 104.472 28.1084 104.7 27.7242C104.928 27.3175 105.042 26.7752 105.042 26.0748V3.7733C105.042 3.09545 104.928 2.55316 104.7 2.14645C104.472 1.73973 104.129 1.446 103.673 1.28783C103.217 1.10707 102.67 1.01669 102.031 1.01669H101.53V0.632568H109.192V25.9618C109.192 26.6849 109.306 27.2723 109.534 27.7016C109.762 28.131 110.105 28.4247 110.538 28.6055C110.971 28.7862 111.541 28.8766 112.18 28.8766H112.636V29.2607H101.507L101.552 29.2381Z" fill="white"/>
<path d="M120.687 29.6223C119.318 29.6223 118.132 29.4641 117.129 29.1252C116.125 28.8088 115.373 28.3343 114.826 27.7243C114.301 27.1142 114.027 26.3686 114.027 25.5325C114.027 24.6965 114.187 24.2446 114.506 23.8831C114.826 23.499 115.19 23.2504 115.601 23.0922C116.011 22.9341 116.399 22.8663 116.718 22.8663C116.718 24.3124 116.855 25.5099 117.106 26.4589C117.38 27.4079 117.813 28.1084 118.406 28.5603C119.022 29.0348 119.82 29.2607 120.846 29.2607C121.872 29.2607 123.172 28.9218 123.948 28.2666C124.723 27.6113 125.111 26.5945 125.111 25.284C125.111 23.9735 124.951 23.7249 124.632 23.2052C124.313 22.7081 123.811 22.2562 123.104 21.8721C122.397 21.488 121.439 21.0361 120.208 20.539C118.839 19.9515 117.722 19.3866 116.855 18.8217C115.989 18.2569 115.35 17.6016 114.94 16.8786C114.529 16.1555 114.324 15.2517 114.324 14.2123C114.324 12.4273 114.962 11.0716 116.239 10.1226C117.517 9.17358 119.295 8.72168 121.53 8.72168C123.765 8.72168 123.948 8.87985 124.86 9.21877C125.749 9.53511 126.434 9.96442 126.89 10.5067C127.346 11.0264 127.574 11.6139 127.574 12.2691C127.574 12.9244 127.323 13.4893 126.821 13.9186C126.32 14.3479 125.544 14.5512 124.541 14.5512C124.541 12.5629 124.267 11.162 123.72 10.3259C123.172 9.48992 122.351 9.0832 121.234 9.0832C120.116 9.0832 119.82 9.21878 119.25 9.46732C118.702 9.73847 118.246 10.1226 117.95 10.6423C117.631 11.162 117.471 11.8172 117.471 12.6532C117.471 13.4893 117.653 14.1897 118.018 14.7094C118.383 15.2291 118.953 15.6584 119.706 16.0425C120.459 16.4267 121.439 16.856 122.625 17.3305C123.993 17.8502 125.088 18.415 125.932 18.9799C126.776 19.5674 127.369 20.2001 127.756 20.9457C128.144 21.6687 128.326 22.55 128.326 23.5893C128.326 25.5551 127.642 27.0464 126.297 28.0858C124.951 29.1252 123.058 29.6449 120.664 29.6449L120.687 29.6223Z" fill="white"/>
<path d="M138.384 29.6223C136.514 29.6223 135.122 29.193 134.21 28.3344C133.298 27.4758 132.842 25.9393 132.842 23.7702V9.4674H129.991V9.08328C130.972 9.08328 131.838 8.9929 132.591 8.81214C133.344 8.63137 133.982 8.33764 134.507 7.93092C135.054 7.52421 135.51 7.00452 135.852 6.37185C136.194 5.73919 136.445 4.97095 136.628 4.06714H137.015V9.10587H142.215V9.48999H137.015V25.2615C137.015 26.5494 137.266 27.4984 137.745 28.1311C138.247 28.7637 138.977 29.0801 139.934 29.0801C140.892 29.0801 140.664 29.0349 141.052 28.9671C141.44 28.8993 141.85 28.7863 142.283 28.6281V29.0123C141.964 29.1704 141.417 29.306 140.687 29.4642C139.957 29.6223 139.182 29.6901 138.361 29.6901L138.384 29.6223Z" fill="white"/>
<path d="M143.219 29.238V28.8539H143.72C144.382 28.8539 144.929 28.7635 145.362 28.5828C145.796 28.402 146.138 28.1083 146.366 27.7242C146.594 27.3174 146.708 26.7752 146.708 26.0747V12.1786C146.708 11.5008 146.594 10.9585 146.366 10.5518C146.138 10.1451 145.796 9.85133 145.362 9.69317C144.929 9.51241 144.359 9.42202 143.72 9.42202H143.538V9.03791H150.904V25.9391C150.904 26.6622 151.018 27.2497 151.246 27.679C151.474 28.1083 151.816 28.402 152.273 28.5828C152.729 28.7635 153.276 28.8539 153.915 28.8539H154.416V29.238H143.242H143.219ZM148.601 5.53565C148.054 5.53565 147.575 5.35488 147.21 5.01596C146.845 4.65443 146.662 4.06696 146.662 3.25353C146.662 2.4401 146.845 1.85262 147.21 1.5137C147.575 1.17477 148.031 1.0166 148.601 1.0166C149.171 1.0166 149.581 1.17477 149.969 1.5137C150.357 1.85262 150.539 2.4401 150.539 3.25353C150.539 4.06696 150.357 4.67703 149.969 5.01596C149.581 5.37748 149.125 5.53565 148.601 5.53565Z" fill="white"/>
<path d="M165.089 29.6222C163.31 29.6222 161.759 29.2832 160.414 28.6054C159.068 27.9275 158.019 26.8204 157.289 25.2613C156.537 23.7022 156.172 21.6687 156.172 19.1154C156.172 16.5621 156.56 14.4382 157.312 12.9017C158.065 11.3652 159.114 10.2807 160.437 9.6254C161.759 8.97014 163.242 8.65381 164.929 8.65381C166.617 8.65381 167.233 8.81198 168.282 9.10571C169.331 9.39945 170.152 9.85136 170.79 10.4162C171.429 11.0037 171.748 11.7268 171.748 12.608C171.748 13.4892 171.611 13.5796 171.36 13.9637C171.087 14.3478 170.699 14.6189 170.152 14.8223C169.604 15.0257 168.875 15.116 167.962 15.116C167.962 13.6925 167.871 12.5176 167.689 11.6138C167.506 10.71 167.187 10.0547 166.731 9.648C166.275 9.24128 165.636 9.03793 164.792 9.03793C163.949 9.03793 163.15 9.33167 162.489 9.91914C161.85 10.5066 161.349 11.5234 161.007 12.9695C160.665 14.4156 160.505 16.4718 160.505 19.1606C160.505 21.8494 160.687 23.5441 161.029 25.0353C161.394 26.5266 161.964 27.5886 162.763 28.2439C163.561 28.8991 164.587 29.2381 165.864 29.2381C167.141 29.2381 167.461 29.0799 168.145 28.7862C168.829 28.4924 169.422 27.9727 169.901 27.2497C170.403 26.5266 170.767 25.5324 171.018 24.2671C171.292 24.3349 171.52 24.4931 171.68 24.7416C171.839 24.9902 171.931 25.2839 171.931 25.668C171.931 26.2781 171.68 26.8656 171.201 27.4756C170.722 28.0857 169.969 28.5828 168.966 28.9895C167.962 29.3962 166.685 29.5996 165.157 29.5996L165.089 29.6222Z" fill="white"/>
<path d="M183.744 29.6223C180.779 29.6223 178.498 28.7185 176.879 26.9109C175.26 25.1032 174.462 22.5726 174.462 19.3189C174.462 16.0652 175.214 13.1278 176.742 11.3427C178.27 9.55773 180.391 8.67651 183.174 8.67651C185.956 8.67651 187.689 9.44475 189.149 10.9586C190.608 12.4725 191.338 14.732 191.338 17.7146V18.6184H178.772C178.772 21.1491 178.955 23.2052 179.297 24.7643C179.662 26.3234 180.232 27.4757 181.007 28.1988C181.783 28.9218 182.809 29.2608 184.086 29.2608C185.363 29.2608 185.865 29.08 186.594 28.7185C187.324 28.357 187.94 27.8147 188.465 27.0916C188.966 26.3686 189.308 25.4422 189.491 24.335C189.856 24.4028 190.107 24.5836 190.266 24.8321C190.426 25.1032 190.517 25.397 190.517 25.7133C190.517 26.2556 190.266 26.8431 189.787 27.4531C189.286 28.0632 188.556 28.5829 187.552 28.9896C186.549 29.3963 185.295 29.5997 183.767 29.5997L183.744 29.6223ZM186.982 18.2117C186.982 15.9748 186.845 14.1897 186.594 12.8566C186.344 11.5235 185.933 10.5519 185.386 9.94185C184.838 9.33177 184.086 9.01544 183.151 9.01544C182.216 9.01544 181.349 9.33177 180.733 9.94185C180.118 10.5519 179.662 11.5235 179.342 12.8566C179.046 14.1897 178.841 15.9748 178.772 18.2117H186.982Z" fill="white"/>
</g>
<defs>
<linearGradient id="paint0_linear_40000651_2902" x1="17.1043" y1="34.3673" x2="17.6863" y2="1.60406" gradientUnits="userSpaceOnUse">
<stop stop-color="#BC9B62"/>
<stop offset="0.7" stop-color="#E1C16E"/>
</linearGradient>
<clipPath id="clip0_40000651_2902">
<rect width="192" height="35" fill="white"/>
</clipPath>
</defs>
</svg>
