<svg width="35" height="34" viewBox="0 0 35 34" fill="none" xmlns="http://www.w3.org/2000/svg">
<path d="M28.9404 8.33181L30.6736 6.9987L31.0157 7.51839L27.8685 9.64234L22.3496 13.3705L28.4615 7.76693C28.6211 7.9477 28.7807 8.15105 28.9404 8.35441V8.33181ZM29.7614 9.48417L22.8741 14.1388L28.8948 11.2692L32.3156 9.64234L32.0419 9.07746L30.1491 10.1394C30.035 9.91348 29.8982 9.71012 29.7614 9.48417ZM31.5174 13.4383L23.5583 15.8786L30.1719 14.8844L33.9348 14.3195L33.8436 13.7095L31.7227 14.1614C31.677 13.9128 31.6086 13.6643 31.5402 13.4383H31.5174ZM30.7876 11.3822L23.2846 14.9748L29.6702 13.0316L33.2962 11.9245L33.1138 11.337L31.0841 12.1052C30.9929 11.8793 30.9017 11.6307 30.7876 11.4048V11.3822ZM17.9025 4.40025L18.199 0.649439L17.5832 0.604248V2.75079C17.5148 2.75079 17.4692 2.75079 17.4236 2.75079C17.2183 2.75079 17.0131 2.75079 16.8078 2.75079L17.4236 10.9755L17.9253 4.37765L17.9025 4.40025ZM7.00142 7.06648L13.1133 12.6927L8.9399 7.51839L6.56812 4.58101L6.0892 4.96513L7.54876 6.56939C7.36631 6.72755 7.18387 6.90831 7.00142 7.08908V7.06648ZM25.1318 4.94253L20.9584 12.0826L25.1318 6.90832L27.5036 3.97094L27.0247 3.58682L25.7704 5.34924C25.5651 5.21367 25.3599 5.0781 25.1318 4.94253ZM26.8879 6.23046L21.6882 12.6927L26.5914 8.19624L29.3737 5.64298L28.9404 5.19108L27.4352 6.75015C27.2528 6.56939 27.0703 6.41122 26.8651 6.25305L26.8879 6.23046ZM2.78239 16.7824H11.1064L4.49281 15.7882L0.729894 15.2234L0.638672 15.8334L2.8052 16.0142C2.8052 16.2627 2.75959 16.5113 2.75959 16.7598L2.78239 16.7824ZM3.01045 14.6359L11.2433 15.856L4.8577 13.9128L1.23162 12.8057L1.04917 13.3931L3.17009 13.9128C3.10167 14.1614 3.05606 14.4099 3.01045 14.6585V14.6359ZM19.2708 11.2918L21.711 5.12329L23.1021 1.62103L22.532 1.39508L21.8706 3.45125C21.6198 3.38346 21.3917 3.29308 21.1409 3.24789L19.2936 11.2918H19.2708ZM16.4657 11.0658L15.964 4.46803L15.6903 0.717224L15.0746 0.762415L15.3711 2.90896C15.1202 2.95415 14.8693 2.97675 14.6185 3.02194L16.4657 11.0658ZM15.5307 11.2918L14.0483 4.82955L13.2045 1.14653L12.5888 1.2821L13.2045 3.36086C12.9537 3.42865 12.7256 3.51903 12.4748 3.58682L15.5307 11.2692V11.2918ZM20.1374 11.6307L23.467 5.89153L25.3599 2.63782L24.8126 2.32148L23.8319 4.24208C23.6039 4.1291 23.3758 4.01613 23.1478 3.92575L20.0918 11.6081L20.1374 11.6307ZM8.64342 5.64298L13.8431 12.1052L10.5135 6.36603L8.62062 3.11232L8.07329 3.42865L9.28198 5.23627C9.07673 5.37184 8.84867 5.53001 8.66623 5.66558L8.64342 5.64298ZM10.4907 4.46803L14.6641 11.6307L12.2239 5.46222L10.8328 1.95996L10.2626 2.18591L11.1748 4.1291C10.9468 4.24208 10.7187 4.35506 10.4907 4.46803ZM4.4244 10.5461L11.9274 14.1388L6.40848 10.4106L3.26131 8.28662L2.91923 8.78372L4.78928 9.89089C4.65245 10.1168 4.53842 10.3202 4.4244 10.5461ZM5.58748 8.71593L12.4748 13.3705L7.57156 8.8741L4.78928 6.29824L4.35598 6.75015L6.04359 8.12846C5.88395 8.33181 5.72431 8.51258 5.56467 8.71593H5.58748ZM3.55778 12.5345L11.5169 14.9748L5.49626 12.1052L2.07542 10.4558L1.80176 11.0206L3.80865 11.8341C3.71742 12.06 3.6262 12.3086 3.53498 12.5345H3.55778ZM31.9963 16.3079C31.9963 16.0594 31.9507 15.8108 31.9279 15.5623L23.6951 16.7824H34.1856V16.1724L32.0191 16.3079H31.9963ZM19.841 4.6262L20.6848 0.965772L20.069 0.8302L19.7041 2.95415C19.4533 2.90896 19.2024 2.88637 18.9515 2.84118L18.3358 11.0658L19.8181 4.6036L19.841 4.6262ZM32.0191 17.7314C32.0191 17.98 31.9963 18.2511 31.9735 18.4997L33.1366 18.6126C33.1366 18.3189 33.1594 18.0478 33.1594 17.754H32.0191V17.7314ZM23.7863 17.7314H11.1064L2.87362 18.9742C2.85081 18.7256 2.82801 18.4771 2.8052 18.2285L1.61931 18.2963C1.61931 18.9064 1.68773 19.4939 1.77895 20.0813L4.62965 19.652L11.2433 18.6804L3.28412 21.1207C3.2157 20.8722 3.17009 20.6236 3.10167 20.3751L1.87017 20.6236C1.9842 21.2111 2.12103 21.7986 2.30348 22.3634L5.13137 21.5048L11.5169 19.5616L4.0139 23.1543C3.89987 22.9283 3.80864 22.6798 3.71742 22.4538L2.48592 22.9057C2.69117 23.4706 2.91923 24.0355 3.19289 24.5778L5.90676 23.2899L11.9274 20.4203L5.04015 25.0749C4.90331 24.8715 4.76648 24.6456 4.65245 24.4196L3.44376 25.0975C3.74023 25.6398 4.0367 26.1369 4.40159 26.6339L6.95581 24.9167L12.4748 21.1885L6.36287 26.7921C6.20323 26.6113 6.04359 26.408 5.88395 26.2046L4.74367 27.0858C5.10856 27.5603 5.49626 28.0348 5.92956 28.4642L8.23292 26.3628L13.1361 21.8664L7.93645 28.3286C7.7312 28.1704 7.54876 27.9897 7.36631 27.8089L6.34006 28.8709C6.77337 29.3002 7.22948 29.6843 7.7084 30.0684L9.69248 27.6055L13.8659 22.4312L9.69248 29.5713C9.46442 29.4358 9.25917 29.3002 9.05392 29.142L8.16451 30.3847C8.66623 30.7463 9.16795 31.0626 9.71529 31.3563L11.3345 28.5997L14.6641 22.8605L11.6081 30.5429C11.3801 30.4525 11.152 30.3396 10.9012 30.2266L10.1942 31.6275C10.7415 31.8986 11.2889 32.1472 11.8818 32.3731L13.0677 29.368L15.5079 23.1995L13.6606 31.2434C13.4098 31.1756 13.1589 31.1078 12.9309 31.0174L12.4291 32.5313C12.9993 32.7121 13.5922 32.8702 14.208 33.0058L14.9378 29.8425L16.4201 23.3802L15.8044 31.6049C15.5535 31.5823 15.3026 31.5371 15.0518 31.4919L14.7781 33.0736C15.3711 33.164 15.9868 33.2318 16.6026 33.2543L16.8534 30.0232L17.3551 23.4254L17.9709 31.6501C17.7656 31.6501 17.5604 31.6501 17.3551 31.6501C17.1499 31.6501 17.2639 31.6501 17.2183 31.6501V33.2543C17.2411 33.2543 17.3095 33.2543 17.3551 33.2543C17.9253 33.2543 18.4954 33.2317 19.0428 33.164L18.7919 29.9328L18.2902 23.335L20.1374 31.3789C19.8866 31.4241 19.6357 31.4693 19.3848 31.4919L19.6129 33.0736C20.2286 32.9832 20.8216 32.8702 21.4145 32.7121L20.6848 29.5713L19.2024 23.1091L22.2583 30.7915C22.0075 30.8818 21.7794 30.9496 21.5286 31.0174L21.9847 32.5313C22.5776 32.3505 23.1478 32.1472 23.7179 31.8986L22.532 28.9161L20.0918 22.7476L24.2652 29.9103C24.0372 30.0232 23.8091 30.1362 23.5811 30.2492L24.2424 31.6501C24.7898 31.3789 25.3371 31.0852 25.8388 30.7463L24.2424 28.0123L20.9128 22.2731L26.1125 28.7353C25.9072 28.8935 25.702 29.029 25.4739 29.1646L26.3177 30.4299C26.8195 30.091 27.2984 29.7069 27.7545 29.3002L25.7932 26.8599L21.6198 21.6856L27.7317 27.3118C27.5492 27.4926 27.3668 27.6733 27.1615 27.8315L28.165 28.9161C28.5983 28.5093 29.0316 28.0574 29.4193 27.6055L27.1615 25.5268L22.2583 21.0077L29.1456 25.6623C28.986 25.8657 28.8263 26.0691 28.6667 26.2724L29.7614 27.1762C30.1263 26.7017 30.4912 26.2046 30.8104 25.6849L28.3018 23.9903L22.7829 20.2621L30.2859 23.8547C30.1719 24.0807 30.035 24.3066 29.8982 24.5326L31.0841 25.233C31.3806 24.7134 31.6542 24.1711 31.8823 23.6062L29.214 22.3183L23.1934 19.4261L31.1525 21.8664C31.0613 22.1149 30.9701 22.3409 30.8788 22.5894L32.0875 23.0865C32.2928 22.5216 32.4752 21.9567 32.6121 21.3693L29.8298 20.5106L23.4442 18.5449L31.677 19.765C31.6314 20.0135 31.5858 20.2621 31.5174 20.5106L32.7261 20.8044C32.8401 20.2169 32.9313 19.6294 32.977 19.0419L23.5811 17.6185H23.6723L23.7863 17.7314Z" fill="url(#paint0_linear_40000651_2903)"/>
<defs>
<linearGradient id="paint0_linear_40000651_2903" x1="17.1043" y1="33.3673" x2="17.6863" y2="0.604055" gradientUnits="userSpaceOnUse">
<stop stop-color="#BC9B62"/>
<stop offset="0.7" stop-color="#E1C16E"/>
</linearGradient>
</defs>
</svg>
