<svg width="192" height="35" viewBox="0 0 192 35" fill="none" xmlns="http://www.w3.org/2000/svg">
<g clip-path="url(#clip0_40000651_3108)">
<path d="M28.9404 9.33206L30.6736 7.99894L31.0157 8.51863L27.8685 10.6426L22.3496 14.3708L28.4615 8.76718C28.6211 8.94794 28.7807 9.1513 28.9404 9.35465V9.33206ZM29.7614 10.4844L22.8741 15.139L28.8948 12.2694L32.3156 10.6426L32.0419 10.0777L30.1491 11.1397C30.035 10.9137 29.8982 10.7104 29.7614 10.4844ZM31.5174 14.4386L23.5583 16.8789L30.1719 15.8847L33.9348 15.3198L33.8436 14.7097L31.7227 15.1616C31.677 14.9131 31.6086 14.6645 31.5402 14.4386H31.5174ZM30.7876 12.3824L23.2846 15.9751L29.6702 14.0319L33.2962 12.9247L33.1138 12.3372L31.0841 13.1055C30.9929 12.8795 30.9017 12.631 30.7876 12.405V12.3824ZM17.9025 5.40049L18.199 1.64968L17.5832 1.60449V3.75104C17.5148 3.75104 17.4692 3.75104 17.4236 3.75104C17.2183 3.75104 17.0131 3.75104 16.8078 3.75104L17.4236 11.9757L17.9253 5.37789L17.9025 5.40049ZM7.00142 8.06673L13.1133 13.6929L8.9399 8.51863L6.56812 5.58125L6.0892 5.96537L7.54876 7.56963C7.36631 7.7278 7.18387 7.90856 7.00142 8.08932V8.06673ZM25.1318 5.94277L20.9584 13.0829L25.1318 7.90856L27.5036 4.97118L27.0247 4.58706L25.7704 6.34949C25.5651 6.21392 25.3599 6.07835 25.1318 5.94277ZM26.8879 7.2307L21.6882 13.6929L26.5914 9.19649L29.3737 6.64323L28.9404 6.19132L27.4352 7.75039C27.2528 7.56963 27.0703 7.41146 26.8651 7.2533L26.8879 7.2307ZM2.78239 17.7827H11.1064L4.49281 16.7885L0.729894 16.2236L0.638672 16.8337L2.8052 17.0144C2.8052 17.263 2.75959 17.5115 2.75959 17.7601L2.78239 17.7827ZM3.01045 15.6361L11.2433 16.8563L4.8577 14.9131L1.23162 13.8059L1.04917 14.3934L3.17009 14.9131C3.10167 15.1616 3.05606 15.4102 3.01045 15.6587V15.6361ZM19.2708 12.292L21.711 6.12354L23.1021 2.62128L22.532 2.39533L21.8706 4.45149C21.6198 4.3837 21.3917 4.29332 21.1409 4.24813L19.2936 12.292H19.2708ZM16.4657 12.0661L15.964 5.46828L15.6903 1.71747L15.0746 1.76266L15.3711 3.9092C15.1202 3.9544 14.8693 3.97699 14.6185 4.02218L16.4657 12.0661ZM15.5307 12.292L14.0483 5.8298L13.2045 2.14678L12.5888 2.28235L13.2045 4.36111C12.9537 4.42889 12.7256 4.51928 12.4748 4.58706L15.5307 12.2694V12.292ZM20.1374 12.631L23.467 6.89177L25.3599 3.63806L24.8126 3.32173L23.8319 5.24232C23.6039 5.12935 23.3758 5.01637 23.1478 4.92599L20.0918 12.6084L20.1374 12.631ZM8.64342 6.64323L13.8431 13.1055L10.5135 7.36627L8.62062 4.11256L8.07329 4.42889L9.28198 6.23651C9.07673 6.37208 8.84867 6.53025 8.66623 6.66582L8.64342 6.64323ZM10.4907 5.46828L14.6641 12.631L12.2239 6.46246L10.8328 2.96021L10.2626 3.18616L11.1748 5.12935C10.9468 5.24232 10.7187 5.3553 10.4907 5.46828ZM4.4244 11.5464L11.9274 15.139L6.40848 11.4108L3.26131 9.28687L2.91923 9.78396L4.78928 10.8911C4.65245 11.1171 4.53842 11.3204 4.4244 11.5464ZM5.58748 9.71618L12.4748 14.3708L7.57156 9.87434L4.78928 7.29849L4.35598 7.75039L6.04359 9.1287C5.88395 9.33206 5.72431 9.51282 5.56467 9.71618H5.58748ZM3.55778 13.5348L11.5169 15.9751L5.49626 13.1055L2.07542 11.456L1.80176 12.0209L3.80865 12.8343C3.71742 13.0603 3.6262 13.3088 3.53498 13.5348H3.55778ZM31.9963 17.3082C31.9963 17.0596 31.9507 16.8111 31.9279 16.5625L23.6951 17.7827H34.1856V17.1726L32.0191 17.3082H31.9963ZM19.841 5.62644L20.6848 1.96602L20.069 1.83044L19.7041 3.9544C19.4533 3.9092 19.2024 3.88661 18.9515 3.84142L18.3358 12.0661L19.8181 5.60385L19.841 5.62644ZM32.0191 18.7317C32.0191 18.9802 31.9963 19.2514 31.9735 19.4999L33.1366 19.6129C33.1366 19.3191 33.1594 19.048 33.1594 18.7543H32.0191V18.7317ZM23.7863 18.7317H11.1064L2.87362 19.9744C2.85081 19.7259 2.82801 19.4773 2.8052 19.2288L1.61931 19.2966C1.61931 19.9066 1.68773 20.4941 1.77895 21.0816L4.62965 20.6523L11.2433 19.6807L3.28412 22.121C3.2157 21.8724 3.17009 21.6239 3.10167 21.3753L1.87017 21.6239C1.9842 22.2113 2.12103 22.7988 2.30348 23.3637L5.13137 22.5051L11.5169 20.5619L4.0139 24.1545C3.89987 23.9286 3.80864 23.68 3.71742 23.4541L2.48592 23.906C2.69117 24.4709 2.91923 25.0357 3.19289 25.578L5.90676 24.2901L11.9274 21.4205L5.04015 26.0751C4.90331 25.8718 4.76648 25.6458 4.65245 25.4199L3.44376 26.0977C3.74023 26.64 4.0367 27.1371 4.40159 27.6342L6.95581 25.917L12.4748 22.1887L6.36287 27.7924C6.20323 27.6116 6.04359 27.4082 5.88395 27.2049L4.74367 28.0861C5.10856 28.5606 5.49626 29.0351 5.92956 29.4644L8.23292 27.363L13.1361 22.8666L7.93645 29.3288C7.7312 29.1707 7.54876 28.9899 7.36631 28.8091L6.34006 29.8711C6.77337 30.3004 7.22948 30.6845 7.7084 31.0687L9.69248 28.6058L13.8659 23.4315L9.69248 30.5716C9.46442 30.436 9.25917 30.3004 9.05392 30.1423L8.16451 31.385C8.66623 31.7465 9.16795 32.0628 9.71529 32.3566L11.3345 29.6L14.6641 23.8608L11.6081 31.5432C11.3801 31.4528 11.152 31.3398 10.9012 31.2268L10.1942 32.6277C10.7415 32.8989 11.2889 33.1474 11.8818 33.3734L13.0677 30.3682L15.5079 24.1997L13.6606 32.2436C13.4098 32.1758 13.1589 32.108 12.9309 32.0177L12.4291 33.5315C12.9993 33.7123 13.5922 33.8705 14.208 34.006L14.9378 30.8427L16.4201 24.3805L15.8044 32.6051C15.5535 32.5825 15.3026 32.5374 15.0518 32.4922L14.7781 34.0738C15.3711 34.1642 15.9868 34.232 16.6026 34.2546L16.8534 31.0235L17.3551 24.4257L17.9709 32.6503C17.7656 32.6503 17.5604 32.6503 17.3551 32.6503C17.1499 32.6503 17.2639 32.6503 17.2183 32.6503V34.2546C17.2411 34.2546 17.3095 34.2546 17.3551 34.2546C17.9253 34.2546 18.4954 34.232 19.0428 34.1642L18.7919 30.9331L18.2902 24.3353L20.1374 32.3792C19.8866 32.4244 19.6357 32.4696 19.3848 32.4922L19.6129 34.0738C20.2286 33.9834 20.8216 33.8705 21.4145 33.7123L20.6848 30.5716L19.2024 24.1093L22.2583 31.7917C22.0075 31.8821 21.7794 31.9499 21.5286 32.0177L21.9847 33.5315C22.5776 33.3508 23.1478 33.1474 23.7179 32.8989L22.532 29.9163L20.0918 23.7478L24.2652 30.9105C24.0372 31.0235 23.8091 31.1364 23.5811 31.2494L24.2424 32.6503C24.7898 32.3792 25.3371 32.0854 25.8388 31.7465L24.2424 29.0125L20.9128 23.2733L26.1125 29.7355C25.9072 29.8937 25.702 30.0293 25.4739 30.1649L26.3177 31.4302C26.8195 31.0913 27.2984 30.7071 27.7545 30.3004L25.7932 27.8601L21.6198 22.6858L27.7317 28.312C27.5492 28.4928 27.3668 28.6736 27.1615 28.8317L28.165 29.9163C28.5983 29.5096 29.0316 29.0577 29.4193 28.6058L27.1615 26.527L22.2583 22.008L29.1456 26.6626C28.986 26.866 28.8263 27.0693 28.6667 27.2727L29.7614 28.1765C30.1263 27.702 30.4912 27.2049 30.8104 26.6852L28.3018 24.9905L22.7829 21.2623L30.2859 24.855C30.1719 25.0809 30.035 25.3069 29.8982 25.5328L31.0841 26.2333C31.3806 25.7136 31.6542 25.1713 31.8823 24.6064L29.214 23.3185L23.1934 20.4263L31.1525 22.8666C31.0613 23.1151 30.9701 23.3411 30.8788 23.5896L32.0875 24.0867C32.2928 23.5219 32.4752 22.957 32.6121 22.3695L29.8298 21.5109L23.4442 19.5451L31.677 20.7652C31.6314 21.0138 31.5858 21.2623 31.5174 21.5109L32.7261 21.8046C32.8401 21.2171 32.9313 20.6297 32.977 20.0422L23.5811 18.6187H23.6723L23.7863 18.7317Z" fill="white"/>
<path d="M47.2071 29.6223C45.8387 29.6223 44.6529 29.4641 43.6494 29.1252C42.646 28.8088 41.8934 28.3343 41.346 27.7243C40.8215 27.1142 40.5479 26.3686 40.5479 25.5325C40.5479 24.6965 40.7075 24.2446 41.0268 23.8831C41.346 23.499 41.7109 23.2504 42.1214 23.0922C42.5319 22.9341 42.9196 22.8663 43.2389 22.8663C43.2389 24.3124 43.3757 25.5099 43.6266 26.4589C43.9003 27.4079 44.3336 28.1084 44.9265 28.5603C45.5423 29.0348 46.3405 29.2607 47.3667 29.2607C48.393 29.2607 49.6929 28.9218 50.4683 28.2666C51.2437 27.6113 51.6314 26.5945 51.6314 25.284C51.6314 23.9735 51.4717 23.7249 51.1524 23.2052C50.8332 22.7081 50.3314 22.2562 49.6245 21.8721C48.9175 21.488 47.9597 21.0361 46.7282 20.539C45.3598 19.9515 44.2424 19.3866 43.3757 18.8217C42.5091 18.2569 41.8706 17.6016 41.4601 16.8786C41.0496 16.1555 40.8443 15.2517 40.8443 14.2123C40.8443 12.4273 41.4829 11.0716 42.76 10.1226C44.0371 9.17358 45.8159 8.72168 48.0509 8.72168C50.2858 8.72168 50.4683 8.87985 51.3805 9.21877C52.2699 9.53511 52.9541 9.96442 53.4102 10.5067C53.8663 11.0264 54.0944 11.6139 54.0944 12.2691C54.0944 12.9244 53.8435 13.4893 53.3418 13.9186C52.84 14.3479 52.0647 14.5512 51.0612 14.5512C51.0612 12.5629 50.7875 11.162 50.2402 10.3259C49.6929 9.48992 48.8719 9.0832 47.7544 9.0832C46.6369 9.0832 46.3405 9.21878 45.7703 9.46732C45.223 9.73847 44.7669 10.1226 44.4704 10.6423C44.1511 11.162 43.9915 11.8172 43.9915 12.6532C43.9915 13.4893 44.1739 14.1897 44.5388 14.7094C44.9037 15.2291 45.4739 15.6584 46.2264 16.0425C46.979 16.4267 47.9597 16.856 49.1455 17.3305C50.5139 17.8502 51.6085 18.415 52.4524 18.9799C53.2962 19.5674 53.8891 20.2001 54.2768 20.9457C54.6645 21.6687 54.8469 22.55 54.8469 23.5893C54.8469 25.5551 54.1628 27.0464 52.8172 28.0858C51.4717 29.1252 49.5789 29.6449 47.1843 29.6449L47.2071 29.6223Z" fill="white"/>
<path d="M66.865 29.6227C64.06 29.6227 61.8478 28.764 60.2058 27.0242C58.5866 25.2844 57.7656 22.6633 57.7656 19.1159C57.7656 15.5684 58.541 12.9474 60.0918 11.2302C61.6426 9.51292 63.9231 8.6543 66.9791 8.6543C70.035 8.6543 71.9963 9.51292 73.6383 11.2302C75.2575 12.9474 76.0785 15.5684 76.0785 19.1159C76.0785 22.6633 75.3031 25.2844 73.7523 27.0242C72.2015 28.764 69.8982 29.6227 66.8878 29.6227H66.865ZM66.9335 29.2385C68.0965 29.2385 69.0316 28.8996 69.7385 28.2444C70.4455 27.5891 70.97 26.5045 71.2665 25.0358C71.5858 23.5445 71.7454 21.5788 71.7454 19.1159C71.7454 16.653 71.5858 14.7324 71.2665 13.2411C70.9472 11.7498 70.4455 10.6879 69.7385 10.0326C69.0316 9.37734 68.0737 9.03842 66.8878 9.03842C65.702 9.03842 64.7897 9.37734 64.0828 10.0326C63.3758 10.6879 62.8513 11.7724 62.5548 13.2411C62.2355 14.7324 62.0759 16.6756 62.0759 19.1159C62.0759 21.5562 62.2355 23.5445 62.5548 25.0358C62.8741 26.5271 63.3986 27.5891 64.1056 28.2444C64.8353 28.8996 65.7704 29.2385 66.9335 29.2385Z" fill="white"/>
<path d="M87.915 29.6227C85.6801 29.6227 84.0381 29.0352 82.9434 27.8829C81.8487 26.7079 81.3014 24.8551 81.3014 22.3018V12.6763C81.3014 11.8402 81.2102 11.2076 81.0277 10.7331C80.8453 10.2586 80.526 9.94225 80.0927 9.76149C79.6594 9.58073 79.0893 9.46775 78.3367 9.46775H78.2227V9.08363H85.4748V22.7763C85.4748 24.2224 85.5889 25.42 85.7941 26.3238C85.9994 27.2276 86.3642 27.8829 86.866 28.3122C87.3677 28.7415 88.0519 28.9448 88.9185 28.9448C89.7851 28.9448 90.8569 28.6511 91.5411 28.041C92.2253 27.431 92.727 26.5723 93.0691 25.4652C93.3884 24.358 93.5708 23.0023 93.5708 21.4658V12.5859C93.5708 11.7499 93.4568 11.1172 93.2515 10.6879C93.0463 10.2586 92.7042 9.94225 92.2709 9.73889C91.8376 9.55813 91.2674 9.44515 90.5833 9.44515H90.4692V9.06104H97.767V25.8041C97.767 26.6175 97.8811 27.2276 98.1091 27.6569C98.3372 28.0862 98.6792 28.4025 99.1125 28.5833C99.5459 28.7641 100.116 28.8545 100.755 28.8545H100.869V29.2386H93.776V24.5388H93.7076C93.5024 25.6911 93.1831 26.6175 92.7498 27.2954C92.3165 27.9732 91.8376 28.4703 91.2902 28.8093C90.7429 29.1256 90.1728 29.3515 89.6026 29.4645C89.0097 29.5775 88.4624 29.6453 87.9378 29.6453L87.915 29.6227Z" fill="white"/>
<path d="M101.552 29.2384V28.8542H102.054C102.716 28.8542 103.263 28.7639 103.696 28.5831C104.129 28.4023 104.472 28.1086 104.7 27.7245C104.928 27.3178 105.042 26.7755 105.042 26.075V3.77355C105.042 3.09569 104.928 2.55341 104.7 2.14669C104.472 1.73998 104.129 1.44624 103.673 1.28807C103.217 1.10731 102.67 1.01693 102.031 1.01693H101.53V0.632812H109.192V25.9621C109.192 26.6851 109.306 27.2726 109.534 27.7019C109.762 28.1312 110.105 28.4249 110.538 28.6057C110.971 28.7865 111.541 28.8768 112.18 28.8768H112.636V29.261H101.507L101.552 29.2384Z" fill="white"/>
<path d="M120.687 29.6223C119.318 29.6223 118.132 29.4641 117.129 29.1252C116.125 28.8088 115.373 28.3343 114.826 27.7243C114.301 27.1142 114.027 26.3686 114.027 25.5325C114.027 24.6965 114.187 24.2446 114.506 23.8831C114.826 23.499 115.19 23.2504 115.601 23.0922C116.011 22.9341 116.399 22.8663 116.718 22.8663C116.718 24.3124 116.855 25.5099 117.106 26.4589C117.38 27.4079 117.813 28.1084 118.406 28.5603C119.022 29.0348 119.82 29.2607 120.846 29.2607C121.872 29.2607 123.172 28.9218 123.948 28.2666C124.723 27.6113 125.111 26.5945 125.111 25.284C125.111 23.9735 124.951 23.7249 124.632 23.2052C124.313 22.7081 123.811 22.2562 123.104 21.8721C122.397 21.488 121.439 21.0361 120.208 20.539C118.839 19.9515 117.722 19.3866 116.855 18.8217C115.989 18.2569 115.35 17.6016 114.94 16.8786C114.529 16.1555 114.324 15.2517 114.324 14.2123C114.324 12.4273 114.962 11.0716 116.239 10.1226C117.517 9.17358 119.295 8.72168 121.53 8.72168C123.765 8.72168 123.948 8.87985 124.86 9.21877C125.749 9.53511 126.434 9.96442 126.89 10.5067C127.346 11.0264 127.574 11.6139 127.574 12.2691C127.574 12.9244 127.323 13.4893 126.821 13.9186C126.32 14.3479 125.544 14.5512 124.541 14.5512C124.541 12.5629 124.267 11.162 123.72 10.3259C123.172 9.48992 122.351 9.0832 121.234 9.0832C120.116 9.0832 119.82 9.21878 119.25 9.46732C118.702 9.73847 118.246 10.1226 117.95 10.6423C117.631 11.162 117.471 11.8172 117.471 12.6532C117.471 13.4893 117.653 14.1897 118.018 14.7094C118.383 15.2291 118.953 15.6584 119.706 16.0425C120.459 16.4267 121.439 16.856 122.625 17.3305C123.993 17.8502 125.088 18.415 125.932 18.9799C126.776 19.5674 127.369 20.2001 127.756 20.9457C128.144 21.6687 128.326 22.55 128.326 23.5893C128.326 25.5551 127.642 27.0464 126.297 28.0858C124.951 29.1252 123.058 29.6449 120.664 29.6449L120.687 29.6223Z" fill="white"/>
<path d="M138.384 29.6226C136.514 29.6226 135.122 29.1933 134.21 28.3347C133.298 27.476 132.842 25.9396 132.842 23.7704V9.46764H129.991V9.08352C130.972 9.08352 131.838 8.99314 132.591 8.81238C133.344 8.63162 133.982 8.33788 134.507 7.93117C135.054 7.52445 135.51 7.00476 135.852 6.3721C136.194 5.73943 136.445 4.97119 136.628 4.06738H137.015V9.10612H142.215V9.49024H137.015V25.2617C137.015 26.5496 137.266 27.4986 137.745 28.1313C138.247 28.764 138.977 29.0803 139.934 29.0803C140.892 29.0803 140.664 29.0351 141.052 28.9673C141.44 28.8995 141.85 28.7866 142.283 28.6284V29.0125C141.964 29.1707 141.417 29.3062 140.687 29.4644C139.957 29.6226 139.182 29.6904 138.361 29.6904L138.384 29.6226Z" fill="white"/>
<path d="M143.219 29.2385V28.8544H143.72C144.382 28.8544 144.929 28.764 145.362 28.5833C145.796 28.4025 146.138 28.1088 146.366 27.7246C146.594 27.3179 146.708 26.7756 146.708 26.0752V12.1791C146.708 11.5013 146.594 10.959 146.366 10.5523C146.138 10.1456 145.796 9.85182 145.362 9.69366C144.929 9.51289 144.359 9.42251 143.72 9.42251H143.538V9.03839H150.904V25.9396C150.904 26.6627 151.018 27.2501 151.246 27.6795C151.474 28.1088 151.816 28.4025 152.273 28.5833C152.729 28.764 153.276 28.8544 153.915 28.8544H154.416V29.2385H143.242H143.219ZM148.601 5.53613C148.054 5.53613 147.575 5.35537 147.21 5.01644C146.845 4.65492 146.662 4.06745 146.662 3.25402C146.662 2.44059 146.845 1.85311 147.21 1.51418C147.575 1.17526 148.031 1.01709 148.601 1.01709C149.171 1.01709 149.581 1.17526 149.969 1.51418C150.357 1.85311 150.539 2.44059 150.539 3.25402C150.539 4.06745 150.357 4.67752 149.969 5.01644C149.581 5.37797 149.125 5.53613 148.601 5.53613Z" fill="white"/>
<path d="M165.089 29.6227C163.31 29.6227 161.759 29.2837 160.414 28.6059C159.068 27.928 158.019 26.8209 157.289 25.2618C156.537 23.7027 156.172 21.6691 156.172 19.1159C156.172 16.5626 156.56 14.4387 157.312 12.9022C158.065 11.3657 159.114 10.2812 160.437 9.62589C161.759 8.97063 163.242 8.6543 164.929 8.6543C166.617 8.6543 167.233 8.81246 168.282 9.1062C169.331 9.39994 170.152 9.85184 170.79 10.4167C171.429 11.0042 171.748 11.7272 171.748 12.6085C171.748 13.4897 171.611 13.5801 171.36 13.9642C171.087 14.3483 170.699 14.6194 170.152 14.8228C169.604 15.0261 168.875 15.1165 167.962 15.1165C167.962 13.693 167.871 12.5181 167.689 11.6143C167.506 10.7105 167.187 10.0552 166.731 9.64849C166.275 9.24177 165.636 9.03842 164.792 9.03842C163.949 9.03842 163.15 9.33215 162.489 9.91963C161.85 10.5071 161.349 11.5239 161.007 12.97C160.665 14.4161 160.505 16.4722 160.505 19.1611C160.505 21.8499 160.687 23.5445 161.029 25.0358C161.394 26.5271 161.964 27.5891 162.763 28.2444C163.561 28.8996 164.587 29.2385 165.864 29.2385C167.141 29.2385 167.461 29.0804 168.145 28.7866C168.829 28.4929 169.422 27.9732 169.901 27.2502C170.403 26.5271 170.767 25.5329 171.018 24.2676C171.292 24.3354 171.52 24.4935 171.68 24.7421C171.839 24.9906 171.931 25.2844 171.931 25.6685C171.931 26.2786 171.68 26.866 171.201 27.4761C170.722 28.0862 169.969 28.5833 168.966 28.99C167.962 29.3967 166.685 29.6001 165.157 29.6001L165.089 29.6227Z" fill="white"/>
<path d="M183.744 29.6225C180.779 29.6225 178.498 28.7187 176.879 26.9111C175.26 25.1035 174.462 22.5728 174.462 19.3191C174.462 16.0654 175.214 13.128 176.742 11.343C178.27 9.55797 180.391 8.67676 183.174 8.67676C185.956 8.67676 187.689 9.445 189.149 10.9589C190.608 12.4728 191.338 14.7323 191.338 17.7148V18.6187H178.772C178.772 21.1493 178.955 23.2055 179.297 24.7646C179.662 26.3236 180.232 27.476 181.007 28.199C181.783 28.9221 182.809 29.261 184.086 29.261C185.363 29.261 185.865 29.0802 186.594 28.7187C187.324 28.3572 187.94 27.8149 188.465 27.0919C188.966 26.3688 189.308 25.4424 189.491 24.3352C189.856 24.403 190.107 24.5838 190.266 24.8323C190.426 25.1035 190.517 25.3972 190.517 25.7136C190.517 26.2558 190.266 26.8433 189.787 27.4534C189.286 28.0635 188.556 28.5832 187.552 28.9899C186.549 29.3966 185.295 29.5999 183.767 29.5999L183.744 29.6225ZM186.982 18.2119C186.982 15.975 186.845 14.19 186.594 12.8569C186.344 11.5238 185.933 10.5522 185.386 9.94209C184.838 9.33202 184.086 9.01569 183.151 9.01569C182.216 9.01569 181.349 9.33202 180.733 9.94209C180.118 10.5522 179.662 11.5238 179.342 12.8569C179.046 14.19 178.841 15.975 178.772 18.2119H186.982Z" fill="white"/>
</g>
<defs>
<clipPath id="clip0_40000651_3108">
<rect width="192" height="35" fill="white"/>
</clipPath>
</defs>
</svg>
